<svg id="svg-logo" viewBox="0 0 250 250" preserveAspectRatio="xMinYMin meet">
                  <path
                    className="fill-main-color"
                    d="M69.1,188.5h9v1.4h-0.7c-0.7,0-1.1,0.1-1.4,0.3c-0.3,0.2-0.5,0.4-0.6,0.8c-0.1,0.3-0.2,1-0.2,1.9V208
      c0,0.8,0.1,1.3,0.2,1.6c0.1,0.3,0.4,0.6,0.6,0.7c0.3,0.1,0.7,0.2,1.4,0.2h0.7v1.4h-9v-1.4h0.7c0.7,0,1.1-0.1,1.4-0.2
      c0.3-0.2,0.5-0.4,0.6-0.7c0.1-0.3,0.2-0.8,0.2-1.7v-15.5c0-0.9-0.1-1.5-0.2-1.8c-0.1-0.3-0.3-0.5-0.6-0.7c-0.3-0.1-0.7-0.2-1.4-0.2
      h-0.7V188.5z"
                  ></path>
                  <path
                    className="fill-main-color"
                    d="M116.4,187.8h1.2l0.2,0.8h14.4l0.1-0.8h1.2l2.5,6.9l-1.5,0.5c-0.7-1.8-1.6-3.1-2.6-3.9
      c-1-0.7-2.3-1.1-3.8-1.1c-0.7,0-1,0-1.2,0.1c-0.1,0.1-0.2,0.1-0.3,0.3c-0.1,0.1-0.1,0.5-0.1,1.2V208c0,0.8,0,1.3,0.1,1.6
      c0.1,0.3,0.2,0.5,0.4,0.6c0.2,0.1,0.4,0.3,0.6,0.3c0.3,0.1,0.9,0.1,1.8,0.1v1.4h-9v-1.4c1,0,1.6,0,1.8-0.1c0.4-0.1,0.7-0.3,0.8-0.6
      c0.2-0.3,0.3-0.9,0.3-1.7v-16.6c0-0.5,0-0.8-0.1-0.9s-0.1-0.2-0.3-0.3c-0.1-0.1-0.4-0.1-0.9-0.1c-1.2,0-2.2,0.2-2.9,0.5
      c-0.7,0.3-1.4,0.8-2.1,1.6c-0.7,0.8-1.2,1.7-1.7,2.9l-1.5-0.5L116.4,187.8z"
                  ></path>
                  <path
                    className="fill-main-color"
                    d="M171.9,188.5h9v1.4h-0.7c-0.6,0-1.1,0.1-1.4,0.3c-0.3,0.2-0.5,0.4-0.6,0.8c-0.1,0.3-0.2,1-0.2,1.9
      V208c0,0.8,0.1,1.3,0.2,1.6c0.1,0.3,0.3,0.6,0.6,0.7c0.3,0.1,0.7,0.2,1.4,0.2h0.7v1.4h-9v-1.4h0.7c0.7,0,1.1-0.1,1.4-0.2
      c0.3-0.2,0.5-0.4,0.6-0.7c0.1-0.3,0.2-0.8,0.2-1.7v-15.5c0-0.9-0.1-1.5-0.2-1.8c-0.1-0.3-0.3-0.5-0.6-0.7c-0.3-0.1-0.7-0.2-1.4-0.2
      h-0.7V188.5z"
                  ></path>{" "}
                  <path
                    className="fill-main-color"
                    d="M159.5,40.4h7.2l10.7,43.1l-9.3,2.8c-5.9-12.1-13.7-21.6-23.4-28.5c-8-5.8-16.9-8.7-26.6-8.7
      c-5.9,0-11.2,1-15.8,3.1c-4.7,2.1-8.2,4.8-10.5,8.1c-2.3,3.3-3.5,6.7-3.5,10.2c0,3.1,0.9,6.2,2.7,9.1c1.8,2.9,4.5,5.5,8.2,7.7
      s9.7,4.6,18.1,7l26.2,7.7c3.2,0.9,7.9,2.7,14,5.4c6.1,2.7,10.9,5.5,14.3,8.5c3.4,3,6.1,6.6,8,10.9c1.9,4.3,2.9,9,2.9,14
      c0,11.1-4.9,20.8-14.6,29.1c-9.7,8.3-22.3,12.5-37.8,12.5c-8,0-15.1-1.2-21.4-3.5c-6.3-2.3-13.1-6.4-20.4-12.3l-4.6,13.3h-7
      l-9.3-50.2l9.3-1.9c3.4,9.3,7.9,17.2,13.6,23.6c5.6,6.5,11.9,11.4,18.8,14.7c6.9,3.3,13.8,5,20.9,5c9.6,0,18.1-2.9,25.3-8.7
      c6-4.9,9-10.6,9-17.2c0-6.1-2.2-11-6.5-14.9c-4.4-3.9-12.3-7.5-23.7-10.8l-25.1-7.2c-14-4.1-23.9-9.3-29.7-15.6
      c-5.8-6.3-8.6-13.6-8.6-21.8c0-6.4,1.9-12.3,5.6-17.8c3.7-5.4,9.5-10,17.2-13.7c7.8-3.7,16.2-5.5,25.5-5.5c7.8,0,15.2,1.3,22.3,4
      c5,1.9,9.6,4.5,13.8,8L159.5,40.4z"
                  ></path>
                  <rect className="fill-main-color" width="250" height="15"></rect>
                  <rect x="235" className="fill-main-color" width="15" height="250"></rect>
                  <rect y="235" className="fill-main-color" width="250" height="15"></rect>
                  <rect className="fill-main-color" width="15" height="250"></rect>
                </svg>