<svg _ngcontent-serverapp-c36="" xmlns="http://www.w3.org/2000/svg" viewBox="0 0 1200 1200" width="445" role="img" aria-labelledby="shipping-package-svg-title shipping-package-svg-desc" title="Sviluppatori di app mobile" class="support-man-svg"><title _ngcontent-serverapp-c36="" id="shipping-package-svg-title">Sviluppo app mobile</title><desc _ngcontent-serverapp-c36="" id="shipping-package-svg-desc">Siamo un'azienda informatica esperta in sviluppo di app mobile </desc><defs _ngcontent-serverapp-c36=""><style _ngcontent-serverapp-c36=""> .cls2-1 { fill: #de8e68; } .cls2-2 { fill: none; stroke: #fd8369; stroke-linecap: round; stroke-miterlimit: 10; stroke-width: 6px; } .cls2-3 { fill: #56cad8; } .cls2-4 { fill: #74d5de; } .cls2-5 { fill: #fd8369; } .cls2-6 { fill: #dfdfdf; } .cls2-7 { fill: #fff; } .cls2-8 { fill: #fed385; } .cls2-9 { fill: #d37c59; } .cls2-10 { fill: #fed892; } </style></defs><rect _ngcontent-serverapp-c36="" x="370.42" y="1048.53" width="54.86" height="28.53" transform="translate(177.29 -50.39) rotate(9.32)" class="cls2-1"></rect><rect _ngcontent-serverapp-c36="" x="663.33" y="987.78" width="43.01" height="28.53" transform="translate(-470.06 628.81) rotate(-37.74)" class="cls2-1"></rect><line _ngcontent-serverapp-c36="" x1="592" y1="1051" x2="592" y2="573" class="cls2-2"></line><path _ngcontent-serverapp-c36="" d="M525.56,804.47c-1.4,7.26,120.26,201.2,130,201.2,12.49,0,41.17-21.28,41.17-27.29s-54.79-145.7-54.79-169.29S537.58,742,525.56,804.47Z" class="cls2-3"></path><line _ngcontent-serverapp-c36="" x1="504" y1="1105" x2="504" y2="573" class="cls2-2"></line><path _ngcontent-serverapp-c36="" d="M912.34,744.47c0-15-220.58-103.63-375.87-103.63-90.75,0-165,397.4-165,404.25,7.28,2.14,56.52,9,56.52,9S551.34,802.29,554.77,785.16c12.42,8.56,168.89,89.92,229.3,89.92C850.28,875.08,912.34,807,912.34,744.47Z" class="cls2-4"></path><rect _ngcontent-serverapp-c36="" x="936.54" y="390.6" width="33.6" height="546.61" transform="translate(177.73 -201) rotate(13.26)" class="cls2-5"></rect><rect _ngcontent-serverapp-c36="" x="741.03" y="724.14" width="33.6" height="314.42" transform="translate(1789.52 345.92) rotate(103.26)" class="cls2-5"></rect><rect _ngcontent-serverapp-c36="" x="504" y="216" width="167" height="113" class="cls2-6"></rect><polygon _ngcontent-serverapp-c36="" points="701.5 272.5 626.5 255 626.5 290 701.5 272.5" class="cls2-6"></polygon><circle _ngcontent-serverapp-c36="" cx="549.5" cy="272.5" r="8.5" class="cls2-7"></circle><circle _ngcontent-serverapp-c36="" cx="587.5" cy="272.5" r="8.5" class="cls2-7"></circle><circle _ngcontent-serverapp-c36="" cx="625.5" cy="272.5" r="8.5" class="cls2-7"></circle><path _ngcontent-serverapp-c36="" d="M903,329c46,0,65,48,65,82,0,157-32.32,314.12-51,326-33,21-187.12-29-201-62C700,637,734,329,903,329Z" class="cls2-8"></path><path _ngcontent-serverapp-c36="" d="M913,253c-1,6,1,57,15,89-5,8-51,26-73,8,2-16,3-42,1-57s34-46,34-46Z" class="cls2-9"></path><ellipse _ngcontent-serverapp-c36="" cx="844.5" cy="216.5" rx="52.5" ry="85.5" class="cls2-1"></ellipse><path _ngcontent-serverapp-c36="" d="M828,69c22,0,38.5,21,52,28,23,12,78,10,78,52,0,30-11,38-11,52,0,8,2,11,2,27,0,21-21,31-32,31-39,0-48.81-44.64-53-55-17-42-49-37-59-37-5,9-9,27-9,27-58,0-66-39-66-53,0-37,33-38,47-46C792.94,85.89,805,69,828,69Z" class="cls2-5"></path><circle _ngcontent-serverapp-c36="" cx="888.5" cy="225.5" r="18.5" class="cls2-1"></circle><path _ngcontent-serverapp-c36="" d="M841,515c-3,6-18,39-20,69-15-6-159-71-186-71-53,0-67,17-67,25,0,15,65,13,74,18S829,677,851,677s77-94,79-117" class="cls2-1"></path><path _ngcontent-serverapp-c36="" d="M940,394c47.59,22.8,16,174-6,175s-102-41-108-54S892,371,940,394Z" class="cls2-10"></path><rect _ngcontent-serverapp-c36="" x="107" y="560" width="510" height="20" class="cls2-5"></rect><line _ngcontent-serverapp-c36="" x1="138" y1="1105" x2="138" y2="573" class="cls2-2"></line><line _ngcontent-serverapp-c36="" x1="230" y1="1051" x2="230" y2="573" class="cls2-2"></line><rect _ngcontent-serverapp-c36="" x="481" y="549" width="115" height="11" class="cls2-6"></rect><rect _ngcontent-serverapp-c36="" x="376.57" y="479.54" width="156.62" height="3.31" transform="translate(154.71 1071.42) rotate(-109.65)" class="cls2-6"></rect><line _ngcontent-serverapp-c36="" x1="854.27" y1="914.6" x2="924.05" y2="1123.93" class="cls2-2"></line><line _ngcontent-serverapp-c36="" x1="780.63" y1="901.62" x2="620.15" y2="1114.88" class="cls2-2"></line><line _ngcontent-serverapp-c36="" x1="672.24" y1="876.08" x2="511.76" y2="1089.34" class="cls2-2"></line><line _ngcontent-serverapp-c36="" x1="749.18" y1="895.67" x2="818.96" y2="1105" class="cls2-2"></line><polygon _ngcontent-serverapp-c36="" points="424.25 1078.41 364.1 1068.11 269.56 1094.37 265.57 1106.99 415.12 1131.09 424.25 1078.41"></polygon><polygon _ngcontent-serverapp-c36="" points="703.64 991.72 668.68 1025.49 631.27 1117.36 637.45 1126.23 733.42 1023 703.64 991.72"></polygon></svg>