<svg id="lightIcon" xmlns="http://www.w3.org/2000/svg" width="16.597" height="16.597" viewBox="0 0 16.597 16.597"><g transform="translate(1 1)"><path d="M17.135,13.817A3.317,3.317,0,1,1,13.817,10.5a3.317,3.317,0,0,1,3.317,3.317Z" transform="translate(-6.519 -6.519)" fill="#ebebeb" stroke="#ebebeb" stroke-linecap="round" stroke-linejoin="round" stroke-width="2"></path><path d="M18,1.5V2.827" transform="translate(-10.702 -1.5)" fill="none" stroke="#ebebeb" stroke-linecap="round" stroke-linejoin="round" stroke-width="2"></path><path d="M18,31.5v1.327" transform="translate(-10.702 -18.23)" fill="none" stroke="#ebebeb" stroke-linecap="round" stroke-linejoin="round" stroke-width="2"></path><path d="M6.33,6.33l.942.942" transform="translate(-4.194 -4.194)" fill="none" stroke="#ebebeb" stroke-linecap="round" stroke-linejoin="round" stroke-width="2"></path><path d="M27.54,27.54l.942.942" transform="translate(-16.022 -16.022)" fill="none" stroke="#ebebeb" stroke-linecap="round" stroke-linejoin="round" stroke-width="2"></path><path d="M1.5,18H2.827" transform="translate(-1.5 -10.702)" fill="none" stroke="#ebebeb" stroke-linecap="round" stroke-linejoin="round" stroke-width="2"></path><path d="M31.5,18h1.327" transform="translate(-18.23 -10.702)" fill="none" stroke="#ebebeb" stroke-linecap="round" stroke-linejoin="round" stroke-width="2"></path><path d="M6.33,28.482l.942-.942" transform="translate(-4.194 -16.022)" fill="none" stroke="#ebebeb" stroke-linecap="round" stroke-linejoin="round" stroke-width="2"></path><path d="M27.54,7.272l.942-.942" transform="translate(-16.022 -4.194)" fill="none" stroke="#ebebeb" stroke-linecap="round" stroke-linejoin="round" stroke-width="2"></path></g></svg>
